<mxfile host="app.diagrams.net" modified="2023-03-20T00:40:31.815Z" agent="5.0 (Windows NT 10.0; Win64; x64) AppleWebKit/537.36 (KHTML, like Gecko) Chrome/111.0.0.0 Safari/537.36" etag="pxyEd9JdbNduGa7X9Rx-" version="21.0.2" type="github">
  <diagram name="Page-1" id="-qMcdj-vq9iIqYvRTq0A">
    <mxGraphModel dx="1434" dy="796" grid="1" gridSize="10" guides="1" tooltips="1" connect="1" arrows="1" fold="1" page="1" pageScale="1" pageWidth="827" pageHeight="1169" math="0" shadow="0">
      <root>
        <mxCell id="0" />
        <mxCell id="1" parent="0" />
        <mxCell id="XApRXDGFLxsoOQUHYLy--7" value="HTTPS POST" style="edgeStyle=orthogonalEdgeStyle;rounded=0;orthogonalLoop=1;jettySize=auto;html=1;" edge="1" parent="1" source="XApRXDGFLxsoOQUHYLy--2" target="XApRXDGFLxsoOQUHYLy--3">
          <mxGeometry relative="1" as="geometry">
            <Array as="points">
              <mxPoint x="180" y="270" />
              <mxPoint x="180" y="270" />
            </Array>
          </mxGeometry>
        </mxCell>
        <mxCell id="XApRXDGFLxsoOQUHYLy--2" value="XY Sense data&lt;br&gt;(webhook)&amp;nbsp;" style="ellipse;shape=cloud;whiteSpace=wrap;html=1;" vertex="1" parent="1">
          <mxGeometry x="120" y="150" width="120" height="80" as="geometry" />
        </mxCell>
        <mxCell id="XApRXDGFLxsoOQUHYLy--8" style="edgeStyle=orthogonalEdgeStyle;rounded=0;orthogonalLoop=1;jettySize=auto;html=1;exitX=1;exitY=0.5;exitDx=0;exitDy=0;" edge="1" parent="1" source="XApRXDGFLxsoOQUHYLy--3" target="XApRXDGFLxsoOQUHYLy--4">
          <mxGeometry relative="1" as="geometry" />
        </mxCell>
        <mxCell id="XApRXDGFLxsoOQUHYLy--9" value="HTTP POST" style="edgeLabel;html=1;align=center;verticalAlign=middle;resizable=0;points=[];" vertex="1" connectable="0" parent="XApRXDGFLxsoOQUHYLy--8">
          <mxGeometry x="-0.1429" y="-2" relative="1" as="geometry">
            <mxPoint as="offset" />
          </mxGeometry>
        </mxCell>
        <mxCell id="XApRXDGFLxsoOQUHYLy--3" value="Hookdeck (proxy)" style="rounded=0;whiteSpace=wrap;html=1;dashed=1;" vertex="1" parent="1">
          <mxGeometry x="120" y="320" width="120" height="60" as="geometry" />
        </mxCell>
        <mxCell id="XApRXDGFLxsoOQUHYLy--10" style="edgeStyle=orthogonalEdgeStyle;rounded=0;orthogonalLoop=1;jettySize=auto;html=1;exitX=1;exitY=0.5;exitDx=0;exitDy=0;entryX=0;entryY=0.5;entryDx=0;entryDy=0;entryPerimeter=0;" edge="1" parent="1" source="XApRXDGFLxsoOQUHYLy--4" target="XApRXDGFLxsoOQUHYLy--5">
          <mxGeometry relative="1" as="geometry" />
        </mxCell>
        <mxCell id="XApRXDGFLxsoOQUHYLy--12" value="HTTP POST" style="edgeLabel;html=1;align=center;verticalAlign=middle;resizable=0;points=[];" vertex="1" connectable="0" parent="XApRXDGFLxsoOQUHYLy--10">
          <mxGeometry x="0.1111" y="3" relative="1" as="geometry">
            <mxPoint as="offset" />
          </mxGeometry>
        </mxCell>
        <mxCell id="XApRXDGFLxsoOQUHYLy--11" value="HTTP POST" style="edgeStyle=orthogonalEdgeStyle;rounded=0;orthogonalLoop=1;jettySize=auto;html=1;entryX=0;entryY=0.5;entryDx=0;entryDy=0;entryPerimeter=0;" edge="1" parent="1" source="XApRXDGFLxsoOQUHYLy--4" target="XApRXDGFLxsoOQUHYLy--6">
          <mxGeometry relative="1" as="geometry" />
        </mxCell>
        <mxCell id="XApRXDGFLxsoOQUHYLy--4" value="Data acquisition app of XY Sense&lt;span id=&quot;docs-internal-guid-b963b6eb-7fff-16be-9583-7f025ff6ab10&quot;&gt;&lt;/span&gt;" style="rounded=0;whiteSpace=wrap;html=1;fillColor=#f8cecc;strokeColor=#b85450;" vertex="1" parent="1">
          <mxGeometry x="380" y="320" width="120" height="60" as="geometry" />
        </mxCell>
        <mxCell id="XApRXDGFLxsoOQUHYLy--5" value="Json-based" style="shape=cylinder3;whiteSpace=wrap;html=1;boundedLbl=1;backgroundOutline=1;size=15;" vertex="1" parent="1">
          <mxGeometry x="590" y="220" width="60" height="80" as="geometry" />
        </mxCell>
        <mxCell id="XApRXDGFLxsoOQUHYLy--6" value="Post-processing" style="shape=cylinder3;whiteSpace=wrap;html=1;boundedLbl=1;backgroundOutline=1;size=15;" vertex="1" parent="1">
          <mxGeometry x="590" y="380" width="60" height="80" as="geometry" />
        </mxCell>
      </root>
    </mxGraphModel>
  </diagram>
</mxfile>
